inDegrees=no
num_controls=7
num_derivatives=13
num_iterations=208
num_multipliers=7
num_parameters=0
num_slacks=7
num_states=26
objective=5.512255
objective_accelerations=0.469453
objective_balance=0.015600
objective_effort=0.401535
objective_height=4.525626
objective_ligament=0.100041
solver_duration=1725.733332
status=Solve_Succeeded
success=true
DataType=double
version=3
OpenSimVersion=4.4-2022-07-23-0e9fedc
endheader
time	/jointset/ground_pelvis/pelvis_tilt/value	/jointset/ground_pelvis/pelvis_tx/value	/jointset/ground_pelvis/pelvis_ty/value	/jointset/hip_r/hip_flexion_r/value	/jointset/hip_r/hip_adduction_r/value	/jointset/hip_r/hip_rotation_r/value	/jointset/back/lumbar_extension/value	/jointset/patellofemoral_r/patellar_flexion_r/value	/jointset/knee_r/knee_flexion_r/value	/jointset/knee_r/knee_adduction_r/value	/jointset/knee_r/knee_rotation_r/value	/jointset/ankle_r/ankle_angle_r/value	/jointset/subtalar_r/subtalar_angle_r/value	/jointset/ground_pelvis/pelvis_tilt/speed	/jointset/ground_pelvis/pelvis_tx/speed	/jointset/ground_pelvis/pelvis_ty/speed	/jointset/hip_r/hip_flexion_r/speed	/jointset/hip_r/hip_adduction_r/speed	/jointset/hip_r/hip_rotation_r/speed	/jointset/back/lumbar_extension/speed	/jointset/patellofemoral_r/patellar_flexion_r/speed	/jointset/knee_r/knee_flexion_r/speed	/jointset/knee_r/knee_adduction_r/speed	/jointset/knee_r/knee_rotation_r/speed	/jointset/ankle_r/ankle_angle_r/speed	/jointset/subtalar_r/subtalar_angle_r/speed	/forceset/tau_hip_flexion_r	/forceset/tau_hip_adduction_r	/forceset/tau_hip_rotation_r	/forceset/tau_knee_flexion_r	/forceset/tau_ankle_angle_r	/forceset/tau_subtalar_angle_r	/forceset/tau_lumbar_extension	lambda_cid13_p0	lambda_cid14_p0	lambda_cid14_p1	lambda_cid14_p2	lambda_cid14_p3	lambda_cid14_p4	lambda_cid14_p5	/jointset/ground_pelvis/pelvis_tilt/accel	/jointset/ground_pelvis/pelvis_tx/accel	/jointset/ground_pelvis/pelvis_ty/accel	/jointset/hip_r/hip_flexion_r/accel	/jointset/hip_r/hip_adduction_r/accel	/jointset/hip_r/hip_rotation_r/accel	/jointset/back/lumbar_extension/accel	/jointset/patellofemoral_r/patellar_flexion_r/accel	/jointset/knee_r/knee_flexion_r/accel	/jointset/knee_r/knee_adduction_r/accel	/jointset/knee_r/knee_rotation_r/accel	/jointset/ankle_r/ankle_angle_r/accel	/jointset/subtalar_r/subtalar_angle_r/accel	gamma_cid13_p0	gamma_cid14_p0	gamma_cid14_p1	gamma_cid14_p2	gamma_cid14_p3	gamma_cid14_p4	gamma_cid14_p5
0	-0.006890601215420988	0.1315437071818944	0.9333734048918423	0.1934208783645156	-0.2283052166508521	-0.2423528254860856	-0.2903791543005566	0.2311793314021599	0.2311793314021609	0.1326411864031088	0.1740928964792603	0.08934340440958972	0.06372926299302704	0	0	0	0	0	0	0	0	0	0	0	0	0	0.1054774468810723	-0.08672388466993132	0.001705362882145033	-0.2574754190909067	0.144175742514888	-0.07359196180651018	-0.02280841515887923	-29.96269641227071	0.8016761791528363	-26.76736995897555	-1.082644053963165	-10.25574991728196	-614.0715339283363	61.89575307633214	-1.28779011335631	-1.417887735236517	-0.7361185305003624	8.177567674314469	-0.1927386172254913	2.338616466107093	-5.916927992317978	9.13117792135148	9.131177921351046	-1.953429398120346	0.1517887565367079	2.787674739925674	0.5382248993294023	4.203268068612885e-08	1.825905871332668e-08	-3.153387909188795e-07	1.855601236134343e-07	1.814107462433115e-08	9.726259017748781e-08	-2.509184809169436e-07
0.01	-0.006950033321385067	0.13147381897842	0.9333376340698806	0.1938185596978826	-0.2283136606869526	-0.2422346367131833	-0.2906758183634818	0.2316269592253771	0.2316269592253762	0.1325435992802549	0.1740962576348122	0.08948040476417728	0.06375693803817679	-0.01184239691146789	-0.01389782402586731	-0.007133927131730507	0.07915673322805528	-0.001719515359605801	0.02355491250578148	-0.05894070020666985	0.08911652505756393	0.08911652505756087	-0.01933220833672416	0.0006591056138893773	0.02728019040159545	0.005463853239325605	0.1015203152816212	-0.08769326380018053	0.002070426158434955	-0.2534686313913223	0.1386574388407216	-0.07043771843809543	-0.0192697733943957	-29.96716667091393	-0.8680089421032317	-25.58328269985879	-1.393125272476829	-9.795948789204312	-615.5498222620064	63.93218380233301	-1.125861691066968	-1.363753607629376	-0.6989747629042582	7.727796512860883	-0.1661771443109451	2.351542379372464	-5.823824178133085	8.740525453608585	8.74052545360842	-1.895366418326076	0.02104065763373839	2.680215823117035	0.5397645237031459	5.455091947494845e-08	8.720223596454609e-09	-4.02572491027967e-07	2.04005596595942e-07	3.552072994886691e-08	-1.042060763068857e-09	-2.967652388278886e-07
0.02	-0.007126568838667397	0.1312673477604135	0.9332311349849227	0.1949964224366939	-0.2283402237064444	-0.2418833760679103	-0.2915501260571314	0.2329534794302945	0.2329534794302946	0.1322582401006275	0.1741058236852834	0.08988661194935001	0.0638371114132136	-0.02342068226393382	-0.02731660290641651	-0.01414565259925431	0.1560362810885069	-0.003623796678519621	0.04661437447391323	-0.115528726145007	0.1757784763411171	0.1757784763411138	-0.03755441134855203	0.001240978980525203	0.0538413661168133	0.0104996659774112	0.09756318368217011	-0.088662642930443	0.002435489434783336	-0.2494618436917462	0.1331391351665479	-0.06728347506970001	-0.01573113162990561	-29.98018460980714	-2.467323569195003	-24.40374139308742	-1.683614036352769	-9.331507539427268	-615.9182707047895	65.73869639613388	-1.234967801555945	-1.32207870617287	-0.7116781976590227	7.722130600793742	-0.2296918090870931	2.239526358577146	-5.446393138651446	8.640263166549325	8.640263166549463	-1.731428333141091	0.1363423070859944	2.64387180265018	0.4526167990814111	6.706915826376805e-08	-8.186115204174637e-10	-4.898061911370544e-07	2.224510695784497e-07	5.290038527340266e-08	-9.934671170362552e-08	-3.426119967388337e-07
0.03	-0.007417783537710968	0.1309289529378759	0.9330549116302747	0.1969321672372594	-0.228386824129498	-0.2413045735942941	-0.2929784514032434	0.2351345194985995	0.2351345194986007	0.131796455725266	0.1741213298219649	0.09055464552567687	0.06396537792024574	-0.03476960527003373	-0.04029511995344264	-0.02109466562560716	0.2307456987581514	-0.005713538734536299	0.06905357980959566	-0.1697674045240607	0.2600234596529354	0.2600234596529374	-0.05462986301165097	0.001837374995110356	0.07963149127500729	0.01509590515977636	0.09278034417684318	-0.08502082854239369	0.002888511039798587	-0.2446865122435216	0.1269985926866548	-0.06688315771941049	-0.01170840134499031	-30.00118419239251	-4.435607845659837	-24.52653433842092	-1.718844405820262	-8.452651346403389	-616.4846601338328	64.6020847722434	-1.076952673295768	-1.275641306456599	-0.6858802159493844	7.29030188923361	-0.2012283444483779	2.232287698478955	-5.357264404560023	8.255690799002945	8.255690799003672	-1.669768541481523	0.01790460341633738	2.526513850852424	0.4544175217451418	7.198346083672532e-08	-9.644929561669994e-09	-5.233941574683705e-07	2.152663315387992e-07	6.333791329071228e-08	-1.808061343782129e-07	-3.489771104914175e-07
0.04	-0.007820907091446365	0.1304627923243702	0.932809324673198	0.1996039971223564	-0.2284548445612298	-0.2405041450518382	-0.2949380953765521	0.2381458243771256	0.2381458243771241	0.1311690838415719	0.1741421231897386	0.09147656654927483	0.06413786482788777	-0.0458024532024881	-0.05286976110002044	-0.02801837308500544	0.3032532979951476	-0.007907798414132569	0.09093958824188508	-0.2217924515842254	0.3418314383849478	0.3418314383849554	-0.07067191301824102	0.002298425200558206	0.1046188555711384	0.01934374609938549	0.08799750467149664	-0.08137901415433568	0.003341532644784384	-0.2399111807953031	0.1208580502067623	-0.06648284036910976	-0.007685671060092724	-30.02918897149015	-6.339152716357211	-24.65376225685186	-1.735353240604238	-7.577949714826969	-616.0359567310395	63.25963373615003	-1.171752786826859	-1.241303526083182	-0.7066170842681098	7.281766914264093	-0.2505953338030096	2.128886977898544	-5.003666874873681	8.152862250588131	8.152862250588345	-1.524748001839318	0.1092731452585301	2.483319630237634	0.3829371505302156	7.67409812196648e-08	-1.845655652919842e-08	-5.558760261960211e-07	2.07553135539929e-07	7.363230466251207e-08	-2.619182327586566e-07	-3.545281697252722e-07
